<svg xmlns="http://www.w3.org/2000/svg" width="1024" height="1024"><path fill="#FDFEFD" d="M421.01 274.725c6.686 5.446 12.64 11.72 18.592 17.943 1.38 1.445 1.38 1.445 3.398 2.332v2l1.746.871q2.148 1.075 4.29 2.164c.668.34 1.337.678 2.026 1.027l2.036 1.036c3.835 1.819 6.862 2.03 11.062 2.035l3.805.005 4.097-.013 2.098-.002a609 609 0 0 0 28.34-.686c8-.372 15.877-.424 23.875 0 8.813.461 17.613.77 26.437.875l3.523.09c10.335.073 17.975-2.02 25.477-9.402l3.06-2.934L588 289c20.623-19.906 42.088-33.525 71.766-33.148 15.139.694 27.55 4.974 40.234 13.148l2.727 1.547C705 272 705 272 705.875 274.125L706 276c-1.828 1.828-4.388 1.17-6.828 1.239-16.185.492-29.815 4.694-41.172 16.761l-3 1c-1.042 1.811-1.042 1.811-2 4a687 687 0 0 1-3.313 4.875c-4.074 6.358-6.514 12.92-8.687 20.125l-.75 2.41c-5.038 19.836-.323 41.529 9.687 58.902 7.934 12.617 20.006 21.942 34.633 25.575 2.811.468 5.593.858 8.43 1.113l-2-2 2.02-.594c14.985-4.862 26.923-15.555 34.476-29.277 4.685-9.748 6.7-19.2 6.691-29.942l.002-2.41c-.05-5.518-.614-10.461-2.189-15.777h-2l.375-2.375c-1.134-10.962-11.631-20.695-19.688-27.438C704.693 297.734 697.545 294 690 294v-2l-20-1c2.538-5.075 4.887-6.008 10-8 13.467-4.374 26.514-1.78 39.062 4.125 6.645 3.466 12.623 7.55 17.938 12.875v2h2a86 86 0 0 1 4.312 5.812l1.222 1.79c10.43 15.63 14.755 34.079 11.341 52.648-3.27 15.86-10.21 28.53-21.875 39.75-2.273 1.285-2.273 1.285-4 2v2a125 125 0 0 1-6 4 747 747 0 0 0 4.875-1.875l2.742-1.055c2.505-.955 2.505-.955 4.383-3.07h3l-.438 3.184c-2.452 18.287-.235 30.057 7.938 46.941 10.725 22.286 15.045 44.122 7.785 68.32C741.64 557.422 708.907 578.224 677 594a1302 1302 0 0 0 7.895 20.254l1.455 3.646c.739 1.851 1.478 3.702 2.225 5.55.738 1.828 1.466 3.66 2.195 5.491l1.3 3.24C693 635 693 635 693 639c-9.46 3.022-18.926 6.022-28.438 8.875l-2.128.651c-3.336.99-5.914 1.474-9.434 1.474q2.123 3.563 4.25 7.125l1.2 2.016 1.19 1.992c.586.98.586.98 1.182 1.981 1.108 1.774 2.303 3.44 3.537 5.128C666 671 666 671 666.13 673.066c-1.763 3.02-4.426 4.83-7.192 6.871q-1.923 1.463-3.843 2.93l-2.035 1.546c-3.432 2.645-6.772 5.4-10.122 8.15a690 690 0 0 1-17.98 14.167c-4.373 3.357-8.664 6.812-12.957 10.27q-2.312 1.845-4.625 3.687a920 920 0 0 0-8.965 7.25c-7.627 6.245-15.332 12.357-23.182 18.319a884 884 0 0 0-13.54 10.494c-37.113 29.24-37.113 29.24-53.528 28.625-15.263-1.811-28.221-14.58-39.95-23.67a920 920 0 0 0-6.515-4.975c-7.74-5.868-15.37-11.843-22.887-17.996A708 708 0 0 0 426 728.5a863 863 0 0 1-15.063-12.063 685 685 0 0 0-17.726-13.976c-4.022-3.072-7.992-6.21-11.966-9.345a1040 1040 0 0 0-12.183-9.429c-4.481-3.426-8.834-6.95-13.062-10.687 4.476-7.796 9.113-15.455 14-23l-1.698-.3c-7.555-1.412-14.872-3.463-22.24-5.638l-3.689-1.052-3.525-1.037-3.188-.93c-2.61-1.023-3.898-1.905-5.66-4.043a21080 21080 0 0 1 5.999-15.855l2.204-5.825.724-1.915a398 398 0 0 1 5.4-13.456c.836-2.078.836-2.078.673-4.949l1-1v-2l-2.504-.75c-20.13-7.197-38.592-21.197-53.496-36.25l-1.703-1.527c-15.062-13.73-21.351-33.94-22.617-53.739-.78-19.484 6.264-36.187 15.132-53.172 6.205-12.366 7.512-29.014 4.188-42.562l-2-1 3-1 2 2c3.715 2.724 6.476 4.255 11 5l-1.793-1.355c-17.319-13.25-26.147-28.554-29.734-49.762C265.345 340.24 270.482 321.308 281 307c2.844-3.5 5.839-6.785 9-10l1.934-1.973c9.574-9.057 22.524-13.955 35.628-14.402 9.364.296 17.918 3.734 26.438 7.375l-1 3-3.734.297c-17.836 1.55-32.357 5.673-45.125 19.039-6.515 8.108-12.648 18.012-12.141 28.664h-1c-3.647 16.41.771 32.496 9.25 46.562 7.97 12.074 20.53 21.82 34.75 25.438 12.286 0 23.272-8.348 31.812-16.438 13.535-14.31 18.64-33.652 18.395-52.949-.95-16.575-6.11-32.067-17.207-44.613l-1.895-2.488C358.691 285.667 347.265 279.98 336 278q-2.428-.207-4.863-.316l-2.686-.127-2.764-.12-2.822-.13q-3.432-.159-6.865-.307c9.226-12.239 24.295-18.304 39.09-20.535 23.739-2.822 47.071 3.585 65.92 18.26M380 278c1.363 2.04 1.363 2.04 3 4h2v2h3l.797 2.215c1.213 2.81 2.62 4.907 4.453 7.347 14.988 21.095 18.287 46.505 14.16 71.568-3.631 19.828-14.34 38.298-30.258 50.733-18.06 12.241-37.31 16.32-58.734 12.563-6.522-1.269-12.444-3.514-18.418-6.426.877 6.005 2.288 10.541 6.844 14.672 9.377 6.863 19.838 7.87 31.156 7.328l1-2 5 1v3l-2.313.75c-2.065.7-4.124 1.425-6.148 2.238-12.416 4.892-22.136 4.464-34.539.012l-.594 1.625c-1.625 4.26-3.375 8.384-5.488 12.426l-1.11 2.13a272 272 0 0 1-2.253 4.196c-1.617 3.08-2.603 5.09-2.285 8.603L290 480c16.395 5.623 34.903 1.904 51-3l2.899-.878c14.918-4.609 29.503-10.104 44.101-15.622 23.342-8.822 46.598-17.067 71-22.5l2.676-.605c53.344-11.83 106.96-2.324 157.365 16.86 7.333 2.787 14.678 5.545 22.021 8.307l2.634.991C664.18 471.264 664.18 471.264 685 478l2.373.706c15.252 4.363 33.588 6.338 48.627.294-2.627-8.173-6.185-15.823-9.914-23.536l-1.16-2.402-1.05-2.152c-1.905-4.154-2.01-7.498-2.001-12.035l-.008-3.82c.077-4.385.582-8.707 1.133-13.055l-3.516 1.242C697 431.054 677.931 432.198 656 422c-19.102-10.411-31.452-27.896-37.74-48.417-6.322-23.39-5.424-50.736 6.7-72.173 2.523-4.245 5.156-8.33 8.286-12.156 1.959-2.041 1.959-2.041 1.754-4.254h2v-2l1.937-.875c2.215-.953 2.215-.953 3.063-3.125-4.13.567-4.13.567-8 2v3l-2.145-.71c-6.46-.655-12.557 5.843-17.332 9.722-3.863 3.392-7.513 6.961-11.093 10.648-13.05 13.413-24.265 21.683-43.43 22.34-6.07-.097-12.13-.539-18.188-.938-18.146-1.166-35.914-1.21-54.062-.062-42.091 2.637-42.091 2.637-57.508-10.946-3.785-3.48-7.35-7.075-10.617-11.054-7.594-9.002-18.083-15.971-28.625-21l-2.61-1.246c-4.037-2.024-4.037-2.024-8.39-2.754m-49 133-3 2h6zm139 53-3.184.586c-24.974 4.716-49.097 12.169-73.229 20.025a923 923 0 0 1-24.894 7.676 1914 1914 0 0 0-5.777 1.707c-20.808 6.039-47.94 12.889-68.275 2.248a216 216 0 0 1-6.34-3.816c-1.992-1.514-1.992-1.514-3.301-1.426-.767 17.876 4.804 32.824 16.543 46.402 25.442 26.898 61.64 41.295 95.268 55.027C429.46 605.777 460.37 621.856 490 641l1.998 1.245c1.368.866 2.693 1.802 4.002 2.755v2c-25.03-6.371-49.3-15.794-73.371-25.078-7.17-2.764-14.368-5.446-21.578-8.103q-2.03-.75-4.059-1.502-2.838-1.052-5.68-2.094l-3.324-1.227A53 53 0 0 0 380 607l1.687 1.187c5.395 4.229 8.929 9.004 12.5 14.75 11.666 18.341 24.984 34.222 39.942 49.973 5.029 5.298 9.956 10.686 14.871 16.09a176 176 0 0 0 13.16-12.133l3.404-3.441a3149 3149 0 0 0 5.26-5.345q2.569-2.613 5.149-5.214c.515-.53 1.031-1.058 1.563-1.604 6.04-6.081 10.855-8.91 19.464-9.263l2.137-.094a249 249 0 0 1 6.406-.11l2.34-.016q2.423-.014 4.847-.02c2.462-.01 4.923-.041 7.385-.073l4.74-.015 2.207-.038c5.535.024 9.411 1.285 13.689 4.808l1.39 1.476 1.554 1.611 1.555 1.658c1.88 1.989 3.78 3.91 5.75 5.813h2l1 3c1.624 1.646 1.624 1.646 3.625 3.25 5.66 4.808 10.879 9.815 15.375 15.75 3.015-1.326 4.798-2.645 6.875-5.188 3.577-4.234 7.33-8.275 11.125-12.312 7.143-7.622 7.143-7.622 14-15.5l1.385-1.642c7.43-8.84 14.23-17.865 20.464-27.584a279 279 0 0 1 3.546-5.31l2.23-3.277 1.977-2.894c1.572-2.13 1.572-2.13 1.398-4.293l9-3c-3.537-1.18-3.929-.831-7.125.75-2.954 1.45-5.889 2.614-9.012 3.63-4.506 1.488-8.96 3.09-13.41 4.737l-4.946 1.821-2.597.957c-15.018 5.531-30.063 10.98-45.16 16.292l-2.296.811C536.585 645.42 536.585 645.42 528 647l-1-2 1.762-.85c2.107-1.083 4.06-2.26 6.047-3.548 31.4-20.192 64.236-36.68 98.788-50.745 60.076-23.884 60.076-23.884 101.337-71.314 4.157-9.913 4.424-18.971 4.066-29.543l-1.688 1.172C720.235 501.826 704.183 503.438 684 500c-22.244-4.414-43.887-11.904-65.437-18.832C570.395 465.71 520.59 454.542 470 464M352 596l2 2 3-1zm313 3c3.93-.575 3.93-.575 7-3-3.517 0-4.371.824-7 3m-308-1 2 2 3-1zm5 2c2.262 2.262 3.97 3.04 7 4l3-1c-4.812-2.29-4.812-2.29-10-3m295 1-2 2 5-1zm-285 3 2 2 3-1zm275 1-2 2 5-1zm-175.5 77.387a1038 1038 0 0 0-3.285 3.3l-1.745 1.75q-2.769 2.779-5.533 5.563l-3.744 3.758q-4.6 4.618-9.193 9.242c3.852 6.087 7.724 12.152 11.75 18.125a1038 1038 0 0 1 12.407 18.977c2.106 3.277 4.252 6.497 6.542 9.648 1.724 2.435 3.034 4.59 4.301 7.25q1.443-5.733 2.88-11.469l1.456-5.787Q488.68 737.375 490 732l.688-2.78c1.14-4.801 1.204-8.361.312-13.22l1-2a125 125 0 0 0-3.621-7.633l-1.148-2.278a1722 1722 0 0 0-3.669-7.214l-2.47-4.887A3561 3561 0 0 0 475 680c-1.456-.115-1.456-.115-3.5 2.387M548 681c-1.89 3.733-3.764 7.473-5.613 11.227a292 292 0 0 1-4.992 9.609l-2.52 4.851-1.256 2.224c-3.548 7.005-2.297 12.637-.619 20.089q.42 1.97.836 3.943c.888 4.133 1.835 8.251 2.789 12.37l.984 4.302Q538.798 754.81 540 760c1.969-2.58 3.82-5.193 5.574-7.922l1.5-2.324 1.613-2.504c5.903-9.138 11.925-18.19 18.019-27.202l1.958-2.915 1.733-2.566c1.733-2.775 3.183-5.622 4.603-8.567a4233 4233 0 0 0-10.571-10.681q-1.802-1.815-3.597-3.638a1657 1657 0 0 0-5.168-5.212l-1.626-1.657c-1.308-1.31-2.669-2.566-4.038-3.812zm-56 35 1 2Z"/><path fill="#FDFEFD" d="m647.438 501.563 3.077.81C665.84 506.424 680.962 510.987 696 516v2c-4.149 1.18-8.045.997-12.312.75l-2.39-.133c-7.605-.5-14.884-1.878-22.298-3.617l-1 2-2-1v-2l-3.767.094c-5.737-.004-11.297-.778-16.967-1.59q-3.435-.473-6.871-.943-5.331-.742-10.661-1.495c-3.468-.487-6.937-.962-10.406-1.437l-3.099-.448c-19.296-2.623-38.86-2.343-58.292-2.349l-7.705-.01q-8.033-.009-16.065-.007-9.156-.001-18.31-.026a6906 6906 0 0 0-17.914-.018 2781 2781 0 0 1-7.48-.013c-23.356-.067-46.593 1.124-69.776 4.055l-4.15.505q-5.563.68-11.124 1.38-3.838.48-7.677.957c-7.15.89-14.301 1.78-21.45 2.682l-2.48.313-4.556.577c-3.675.463-7.351.91-11.03 1.333l-2.163.249c-3.21.298-6.398.285-9.62.254l-3.69-.028L328 518v-3a2243 2243 0 0 1 51.727-14.034q3.95-1.024 7.894-2.062c89.517-23.544 170.96-20.813 259.817 2.659M705 331c.703 1.742.703 1.742 1.25 3.875 1.236 3.572 1.644 4.054 5 6.313 4.689 1.015 6.618.116 10.75-2.188l3-2c2.688.375 2.688.375 5 1l1 4 3-1c-2.974 13.587-2.974 13.587-9.68 18.14-8.876 4.936-19.313 6.384-29.32 6.86l-2.348.125c-15.112.404-34.266-1.738-46.27-11.695-2.262-2.34-3.329-4.081-3.82-7.305.602-4.294 2.063-5.453 5.438-8.125 13.635-8.637 41.417-13.194 57-8m-331 7c4.746 3.493 4.746 3.493 6 6 .404 3.639.387 5.421-1.672 8.504C367.224 364.409 347.21 365.292 332 366c-12.17.264-24.872-1.889-35-9-4.294-4.746-5.519-8.302-6.145-14.578.145-2.422.145-2.422 2.582-5.047L296 336l1.652 1.094c5.384 3.313 9.976 5.323 16.348 3.906 3.102-2.602 3.872-6.183 5-10 16.223-3.701 40.395-1.21 55 7"/><path fill="#FBFDFC" d="M466 373c6.183 2.825 9.532 7.82 12 14 .651 3.836.526 5.18-1.562 8.438C474 397 474 397 470.75 397.188c-5.61-1.777-9.678-5.084-12.957-9.997-1.938-3.973-2.12-7.019-.793-11.191 2.318-3.66 4.902-3.63 9-3"/><path fill="#FAFDFB" d="M564 373c2.063 1.423 2.796 2.545 3.813 4.813.493 5.761-2.851 10.15-6.22 14.492-1.97 2.097-3.846 2.91-6.593 3.695l-1 2c-6.875-2.75-6.875-2.75-8-5-.46-6.81 1.907-10.979 6.113-16.152 3.663-3.587 6.79-4.39 11.887-3.848"/><path fill="#F0F8F4" d="M664 515c8.415-.167 16.762.273 25.156.781 2.279.13 4.562.219 6.844.219v2c-4.246 1.22-8.259.956-12.625.688l-2.43-.14c-5.791-.376-11.295-1.181-16.945-2.548z"/><path fill="#F1F9F5" d="m338 441 6 2v3l-4 1v-2l-3.105.035-4.082.027-2.042.026c-3.725.018-7.15-.195-10.771-1.088v-1l18 1z"/><path fill="#F6FAF7" d="m649 338 2 1-2.937 2.688c-2.664 2.638-3.836 4.455-4.063 8.312h-1c-.312-2.687-.312-2.687 0-6 2.438-2.812 2.438-2.812 5-5z"/><path fill="#EFF9F3" d="m328 515 1.672.465c2.531.582 4.992.86 7.578 1.097l2.703.254L342 517v1h-14z"/><path fill="#F3FAF6" d="M295 336c4.875 1.75 4.875 1.75 6 4l-6-2zm-3 3h2l-2 4-1-3z"/><path fill="#F4FBF6" d="M731 336h2v5l-1-3-2-1z"/><path fill="#F6FDF9" d="m292 475 2 4-3-1z"/><path fill="#EFF9F4" d="M323 278h6v1h-6z"/><path fill="#F4FBF8" d="M733 344h1v5h-1z"/><path fill="#F2FBF6" d="m675 518 4 1Z"/><path fill="#F7FDFA" d="m699 366 4 1Z"/><path fill="#F7FCF9" d="m290 353 1 4Z"/><path fill="#F5FBF6" d="m547 327 4 1Z"/><path fill="#F5FCF9" d="m346 292 4 1Z"/><path fill="#F3FCF8" d="m692 513 3 1Z"/><path fill="#F7FDF9" d="m582 507 3 1Z"/><path fill="#F8FCF7" d="m364 495 3 1Z"/><path fill="#F6FCFA" d="m297 480 3 1Z"/><path fill="#F5FAF8" d="m336 293 3 1Z"/><path fill="#F3FDF7" d="m330 278 3 1Z"/><path fill="#F9FEFC" d="m395 614 2 1Z"/><path fill="#E6F3EC" d="m276 542 2 1Z"/><path fill="#F6FCF7" d="m364 516 2 1Z"/><path fill="#F8FDFA" d="m340 501 2 1Z"/><path fill="#F8FCFB" d="m417 490 2 1Z"/><path fill="#F9FDFA" d="m618 483 2 1Z"/><path fill="#F6FBF8" d="m313 480 2 1Z"/><path fill="#F6FDFB" d="m600 477 2 1Z"/><path fill="#F8FCF9" d="m444 471 2 1Z"/><path fill="#FAFCFB" d="m568 469 2 1Z"/><path fill="#F9FDFB" d="m500 462 2 1Z"/><path fill="#F6FBF9" d="m324 454 2 1Z"/><path fill="#F5FCF8" d="m332 452 2 1Z"/><path fill="#F8FDF9" d="m339 409 2 1Z"/><path fill="#F5FDF7" d="m672 283 2 1Z"/><path fill="#F2FAF5" d="m674 282 2 1Z"/><path fill="#ECF8F1" d="m320 278 2 1Z"/><path fill="#E4F1EA" d="m700 268 2 1Z"/><path fill="#EBF5EF" d="m616 264 2 1Z"/></svg>