<?xml version="1.0" encoding="UTF-8"?>
<svg version="1.1" xmlns="http://www.w3.org/2000/svg" width="1024" height="1024">
<path d="M0 0 C6.68495069 5.44658093 12.63941865 11.72063301 18.59155273 17.94335938 C19.97126881 19.38833169 19.97126881 19.38833169 21.98925781 20.27514648 C21.98925781 20.93514648 21.98925781 21.59514648 21.98925781 22.27514648 C22.56546875 22.56260742 23.14167969 22.85006836 23.73535156 23.14624023 C25.16715606 23.86338322 26.59707818 24.58430655 28.02441406 25.31030273 C28.6934375 25.64932617 29.36246094 25.98834961 30.05175781 26.33764648 C30.72335937 26.67924805 31.39496094 27.02084961 32.08691406 27.37280273 C35.92256895 29.19217908 38.94909315 29.4037196 43.14941406 29.40795898 C45.03273438 29.41073853 45.03273438 29.41073853 46.95410156 29.41357422 C48.31998803 29.40943255 49.6858735 29.4049483 51.05175781 29.40014648 C51.74398437 29.39959259 52.43621094 29.3990387 53.14941406 29.39846802 C62.61058344 29.38961995 72.03738285 29.16101669 81.48925781 28.71264648 C89.48910095 28.34009434 97.36648727 28.28838002 105.36425781 28.71264648 C114.17692025 29.17332777 122.97695252 29.48183208 131.80175781 29.58764648 C132.96433105 29.61721436 134.1269043 29.64678223 135.32470703 29.67724609 C145.6590633 29.74983353 153.29964543 27.65643421 160.80175781 20.27514648 C161.82127435 19.29726656 162.84080615 18.31940255 163.86035156 17.34155273 C164.90336274 16.31946061 165.94633115 15.29732484 166.98925781 14.27514648 C187.61183734 -5.63123803 209.07694867 -19.24991455 238.75488281 -18.87329102 C253.89421259 -18.17849086 266.30434856 -13.89858025 278.98925781 -5.72485352 C280.33890625 -4.95915039 280.33890625 -4.95915039 281.71582031 -4.17797852 C283.98925781 -2.72485352 283.98925781 -2.72485352 284.86425781 -0.59985352 C284.92613281 0.32827148 284.92613281 0.32827148 284.98925781 1.27514648 C283.16099614 3.10340816 280.60161096 2.44559476 278.16137695 2.51391602 C261.97615215 3.00660202 248.34614296 7.20845602 236.98925781 19.27514648 C235.50425781 19.77014648 235.50425781 19.77014648 233.98925781 20.27514648 C232.94767102 22.08610189 232.94767102 22.08610189 231.98925781 24.27514648 C230.89246884 25.90513513 229.7874822 27.52962177 228.67675781 29.15014648 C224.60229441 35.50800709 222.16191751 42.06972429 219.98925781 49.27514648 C219.61800781 50.46817383 219.61800781 50.46817383 219.23925781 51.68530273 C214.20163155 71.52095616 218.91643989 93.21371773 228.92675781 110.58764648 C236.86026644 123.20454952 248.9327295 132.52915969 263.55957031 136.16186523 C266.37032127 136.63032373 269.15183291 137.02050579 271.98925781 137.27514648 C271.32925781 136.61514648 270.66925781 135.95514648 269.98925781 135.27514648 C270.65570312 135.07920898 271.32214844 134.88327148 272.00878906 134.68139648 C286.99426282 129.81897703 298.93179205 119.1266446 306.48535156 105.40405273 C311.17070339 95.65608698 313.18572535 86.20352037 313.17675781 75.46264648 C313.17740234 74.66745605 313.17804688 73.87226563 313.17871094 73.05297852 C313.12896088 67.53411467 312.56429097 62.59088338 310.98925781 57.27514648 C310.32925781 57.27514648 309.66925781 57.27514648 308.98925781 57.27514648 C309.11300781 56.49139648 309.23675781 55.70764648 309.36425781 54.90014648 C308.23020994 43.93768374 297.73291229 34.20529751 289.67675781 27.46264648 C283.68224739 23.00897853 276.53469006 19.27514648 268.98925781 19.27514648 C268.98925781 18.61514648 268.98925781 17.95514648 268.98925781 17.27514648 C262.38925781 16.94514648 255.78925781 16.61514648 248.98925781 16.27514648 C251.52678243 11.20009725 253.87642145 10.26738962 258.98925781 8.27514648 C272.45638596 3.90078734 285.50322382 6.49575986 298.05175781 12.40014648 C304.69642435 15.86660767 310.67471398 19.94975665 315.98925781 25.27514648 C315.98925781 25.93514648 315.98925781 26.59514648 315.98925781 27.27514648 C316.64925781 27.27514648 317.30925781 27.27514648 317.98925781 27.27514648 C319.53131898 29.18075842 320.92656745 31.06577243 322.30175781 33.08764648 C322.70475098 33.67787598 323.10774414 34.26810547 323.52294922 34.8762207 C333.95308767 50.5067262 338.27795565 68.95571038 334.86425781 87.52514648 C331.59392384 103.38578104 324.65426561 116.0555299 312.98925781 127.27514648 C310.71582031 128.56030273 310.71582031 128.56030273 308.98925781 129.27514648 C308.98925781 129.93514648 308.98925781 130.59514648 308.98925781 131.27514648 C307.02777907 132.66452726 305.02759206 134.00118758 302.98925781 135.27514648 C304.61672151 134.65659017 306.24116138 134.03007343 307.86425781 133.40014648 C309.22164062 132.87807617 309.22164062 132.87807617 310.60644531 132.34545898 C313.11142788 131.38983754 313.11142788 131.38983754 314.98925781 129.27514648 C315.97925781 129.27514648 316.96925781 129.27514648 317.98925781 129.27514648 C317.84488281 130.32573242 317.70050781 131.37631836 317.55175781 132.45874023 C315.09935399 150.74604302 317.31603502 162.51664209 325.48925781 179.40014648 C336.21460124 201.68588217 340.53385812 223.52231212 333.27441406 247.72045898 C320.62895293 282.69726638 287.89584737 303.49896654 255.98925781 319.27514648 C258.57212366 326.04675002 261.18822567 332.8014854 263.88378906 339.52905273 C264.36396484 340.73239258 264.84414063 341.93573242 265.33886719 343.17553711 C266.07815547 345.02622541 266.81760296 346.87686107 267.56420898 348.72460938 C268.30205119 350.55272083 269.03056159 352.38459002 269.75878906 354.21655273 C270.18780518 355.28591064 270.61682129 356.35526855 271.05883789 357.45703125 C271.98925781 360.27514648 271.98925781 360.27514648 271.98925781 364.27514648 C262.52980991 367.29677035 253.06369472 370.29729879 243.55175781 373.15014648 C242.84929932 373.36501709 242.14684082 373.5798877 241.4230957 373.80126953 C238.08709136 374.7909113 235.50944957 375.27514648 231.98925781 375.27514648 C233.40405378 377.65127818 234.82103195 380.02606306 236.23925781 382.40014648 C236.83287109 383.39788086 236.83287109 383.39788086 237.43847656 384.41577148 C237.83164062 385.07319336 238.22480469 385.73061523 238.62988281 386.40795898 C239.21479492 387.38877441 239.21479492 387.38877441 239.81152344 388.3894043 C240.91945037 390.16337355 242.11471918 391.82999426 243.34863281 393.51733398 C244.98925781 396.27514648 244.98925781 396.27514648 245.11816406 398.34155273 C243.35517427 401.36120654 240.692699 403.17185562 237.92675781 405.21264648 C236.64436321 406.18770543 235.36315936 407.16433199 234.08300781 408.14233398 C233.41140625 408.65248047 232.73980469 409.16262695 232.04785156 409.68823242 C228.61619968 412.33359974 225.27587685 415.0890899 221.92675781 417.83764648 C216.01272417 422.66987073 210.01686119 427.37221925 203.94628906 432.00561523 C199.57311755 435.36203882 195.28199577 438.81691113 190.98925781 442.27514648 C189.44781758 443.5045971 187.90614414 444.73375538 186.36425781 445.96264648 C183.36105412 448.36146129 180.37227631 450.77641041 177.39941406 453.21264648 C169.77221444 459.45698671 162.06755425 465.56950564 154.21679688 471.53076172 C149.66790934 474.98534141 145.15779959 478.48308466 140.67675781 482.02514648 C103.56426107 511.26450333 103.56426107 511.26450333 87.14941406 510.65014648 C71.88611767 508.83892713 58.92786918 496.07002997 47.19921875 486.98071289 C45.03593456 485.31116988 42.86264263 483.65580545 40.68457031 482.00561523 C32.9442003 476.1374295 25.31387008 470.1624372 17.79760742 464.00952148 C13.56643872 460.54722853 9.29937875 457.13856045 4.98925781 453.77514648 C-0.08329256 449.81606511 -5.09046623 445.78406928 -10.07324219 441.71264648 C-15.90711577 436.94987376 -21.81260364 432.30409664 -27.79980469 427.73608398 C-31.82223182 424.66418732 -35.79163925 421.52554227 -39.76538086 418.39111328 C-43.80018728 415.21338647 -47.8669083 412.08029101 -51.94824219 408.96264648 C-56.42982549 405.53590839 -60.78276117 402.0115018 -65.01074219 398.27514648 C-60.53474468 390.47956419 -55.89731787 382.82037581 -51.01074219 375.27514648 C-51.57092041 375.17645264 -52.13109863 375.07775879 -52.70825195 374.97607422 C-60.26369343 373.56270064 -67.58028195 371.51173329 -74.94824219 369.33764648 C-76.16576172 368.99024414 -77.38328125 368.6428418 -78.63769531 368.28491211 C-79.80107422 367.94266602 -80.96445312 367.60041992 -82.16308594 367.24780273 C-83.74077759 366.78772827 -83.74077759 366.78772827 -85.3503418 366.31835938 C-87.96079011 365.29473401 -89.24876694 364.41325244 -91.01074219 362.27514648 C-89.51862943 358.32774602 -88.02524479 354.38082965 -86.53076172 350.43432617 C-86.02424076 349.09623719 -85.51804665 347.75802443 -85.01220703 346.41967773 C-84.27823855 344.47793141 -83.54314683 342.53661443 -82.80761719 340.59545898 C-82.44911682 339.64754486 -82.44911682 339.64754486 -82.08337402 338.68048096 C-80.36646297 334.1592622 -78.56374808 329.6795202 -76.68359375 325.22387695 C-75.84755708 323.14612891 -75.84755708 323.14612891 -76.01074219 320.27514648 C-75.68074219 319.94514648 -75.35074219 319.61514648 -75.01074219 319.27514648 C-75.01074219 318.61514648 -75.01074219 317.95514648 -75.01074219 317.27514648 C-75.83703125 317.02764648 -76.66332031 316.78014648 -77.51464844 316.52514648 C-97.64428655 309.32795744 -116.10719909 295.32822346 -131.01074219 280.27514648 C-131.57277344 279.77112305 -132.13480469 279.26709961 -132.71386719 278.74780273 C-147.77534672 265.01751457 -154.0651356 244.80886033 -155.33105469 225.00952148 C-156.11041165 205.52559734 -149.06695398 188.8225733 -140.19824219 171.83764648 C-133.99408009 159.47124231 -132.6863534 142.82359891 -136.01074219 129.27514648 C-136.67074219 128.94514648 -137.33074219 128.61514648 -138.01074219 128.27514648 C-137.02074219 127.94514648 -136.03074219 127.61514648 -135.01074219 127.27514648 C-134.35074219 127.93514648 -133.69074219 128.59514648 -133.01074219 129.27514648 C-129.29616479 131.99916991 -126.53425252 133.53018808 -122.01074219 134.27514648 C-122.60242188 133.8278418 -123.19410156 133.38053711 -123.80371094 132.91967773 C-141.12242485 119.66930771 -149.95028931 104.36582351 -153.53808594 83.15795898 C-155.66574038 65.51516149 -150.52883021 46.58266113 -140.01074219 32.27514648 C-137.16714813 28.77493108 -134.1717344 25.49035812 -131.01074219 22.27514648 C-130.37265625 21.62416992 -129.73457031 20.97319336 -129.07714844 20.30249023 C-119.50243055 11.24532467 -106.55303089 6.34690064 -93.44824219 5.90014648 C-84.08435387 6.19613146 -75.53057151 9.63435174 -67.01074219 13.27514648 C-67.34074219 14.26514648 -67.67074219 15.25514648 -68.01074219 16.27514648 C-69.85925781 16.42209961 -69.85925781 16.42209961 -71.74511719 16.57202148 C-89.5803603 18.12267673 -104.10144398 22.24531455 -116.87011719 35.61108398 C-123.38489797 43.7188951 -129.51798958 53.62295117 -129.01074219 64.27514648 C-129.34074219 64.27514648 -129.67074219 64.27514648 -130.01074219 64.27514648 C-133.65739213 80.68507122 -129.23939211 96.77079547 -120.76074219 110.83764648 C-112.79022729 122.91112685 -100.23086621 132.6568587 -86.01074219 136.27514648 C-73.72448553 136.27514648 -62.73916131 127.92706328 -54.19824219 119.83764648 C-40.66331824 105.52745243 -35.55888193 86.18540531 -35.80371094 66.88842773 C-36.75345687 50.31267333 -41.91327029 34.82123942 -53.01074219 22.27514648 C-53.6359375 21.45401367 -54.26113281 20.63288086 -54.90527344 19.78686523 C-62.31983198 10.94166831 -73.74571761 5.25516749 -85.01074219 3.27514648 C-86.62936818 3.13687686 -88.25115651 3.032031 -89.87402344 2.95874023 C-90.76025391 2.9168457 -91.64648438 2.87495117 -92.55957031 2.83178711 C-93.47158203 2.7924707 -94.38359375 2.7531543 -95.32324219 2.71264648 C-96.25458984 2.66946289 -97.1859375 2.6262793 -98.14550781 2.58178711 C-100.43378673 2.47617424 -102.72216591 2.37406896 -105.01074219 2.27514648 C-95.78457616 -9.96364519 -80.71542384 -16.02884979 -65.92089844 -18.26000977 C-42.18180736 -21.08213947 -18.84939023 -14.67526238 0 0 Z M-41.01074219 3.27514648 C-39.64750475 5.31511839 -39.64750475 5.31511839 -38.01074219 7.27514648 C-37.35074219 7.27514648 -36.69074219 7.27514648 -36.01074219 7.27514648 C-36.01074219 7.93514648 -36.01074219 8.59514648 -36.01074219 9.27514648 C-35.02074219 9.27514648 -34.03074219 9.27514648 -33.01074219 9.27514648 C-32.74777344 10.00604492 -32.48480469 10.73694336 -32.21386719 11.48999023 C-31.00029144 14.29933928 -29.59418942 16.39717956 -27.76074219 18.83764648 C-12.77313967 39.93246333 -9.47378067 65.34225271 -13.6003418 90.40478516 C-17.23217893 110.23303597 -27.94011669 128.7029678 -43.85839844 141.13842773 C-61.91804812 153.37960292 -81.16915999 157.45767113 -102.59228516 153.70068359 C-109.11488262 152.43211772 -115.03654961 150.18742148 -121.01074219 147.27514648 C-120.13367056 153.27971378 -118.72227571 157.81638303 -114.16699219 161.94702148 C-104.78971864 168.8100985 -94.32851832 169.81695492 -83.01074219 169.27514648 C-82.68074219 168.61514648 -82.35074219 167.95514648 -82.01074219 167.27514648 C-80.36074219 167.60514648 -78.71074219 167.93514648 -77.01074219 168.27514648 C-77.01074219 169.26514648 -77.01074219 170.25514648 -77.01074219 171.27514648 C-78.15542969 171.64639648 -78.15542969 171.64639648 -79.32324219 172.02514648 C-81.38884926 172.72535227 -83.44772643 173.45063381 -85.47167969 174.26342773 C-97.8881744 179.15531319 -107.60781562 178.7274791 -120.01074219 174.27514648 C-120.30464844 175.07952148 -120.30464844 175.07952148 -120.60449219 175.90014648 C-122.23010349 180.1603692 -123.97982561 184.28438322 -126.09277344 188.32592773 C-126.64191406 189.38070312 -126.64191406 189.38070312 -127.20214844 190.45678711 C-127.94129775 191.86168588 -128.69238496 193.26037736 -129.45605469 194.65209961 C-131.07323117 197.73200313 -132.05900179 199.74149324 -131.74121094 203.25561523 C-131.37962891 204.2552832 -131.37962891 204.2552832 -131.01074219 205.27514648 C-114.61558869 210.89827764 -96.10807611 207.17947318 -80.01074219 202.27514648 C-79.05409668 201.98526855 -78.09745117 201.69539062 -77.11181641 201.39672852 C-62.19381477 196.78852467 -47.60882814 191.29315025 -33.01074219 185.77514648 C-9.66904919 176.95297977 13.58752238 168.70766513 37.98925781 163.27514648 C39.31401123 162.97568115 39.31401123 162.97568115 40.66552734 162.67016602 C94.00891791 150.83937473 147.62541871 160.34576075 198.02984619 179.53051758 C205.36364097 182.31755606 212.7086823 185.07517551 220.05175781 187.83764648 C220.9209082 188.16464539 221.79005859 188.49164429 222.68554688 188.82855225 C243.16928313 196.5394751 243.16928313 196.5394751 263.98925781 203.27514648 C264.77236328 203.5079834 265.55546875 203.74082031 266.36230469 203.98071289 C281.61473253 208.34456597 299.95067758 210.31936055 314.98925781 204.27514648 C312.36272048 196.10165618 308.8047572 188.45206478 305.07543945 180.73876953 C304.69250732 179.94639893 304.3095752 179.15402832 303.91503906 178.33764648 C303.56868408 177.62737305 303.2223291 176.91709961 302.86547852 176.18530273 C300.95990667 172.03116672 300.8550913 168.68757244 300.86425781 164.15014648 C300.86167969 162.88944336 300.85910156 161.62874023 300.85644531 160.32983398 C300.93314618 155.94473586 301.43844125 151.6227077 301.98925781 147.27514648 C300.82910156 147.68506836 299.66894531 148.09499023 298.47363281 148.51733398 C275.9880199 156.32939564 256.92015466 157.47270636 234.98925781 147.27514648 C215.88721717 136.86397579 203.5373893 119.3788056 197.24853516 98.8581543 C190.92675959 75.46900107 191.82539275 48.12209344 203.95019531 26.68530273 C206.47265738 22.44034099 209.10527372 18.35591312 212.23535156 14.52905273 C214.19396781 12.4880649 214.19396781 12.4880649 213.98925781 10.27514648 C214.64925781 10.27514648 215.30925781 10.27514648 215.98925781 10.27514648 C215.98925781 9.61514648 215.98925781 8.95514648 215.98925781 8.27514648 C216.62863281 7.98639648 217.26800781 7.69764648 217.92675781 7.40014648 C220.1413186 6.44691197 220.1413186 6.44691197 220.98925781 4.27514648 C216.85952153 4.84254517 216.85952153 4.84254517 212.98925781 6.27514648 C212.98925781 7.26514648 212.98925781 8.25514648 212.98925781 9.27514648 C211.92771484 8.92323242 211.92771484 8.92323242 210.84472656 8.56420898 C204.3838954 7.91017136 198.28707256 14.40862504 193.51269531 18.28686523 C189.64910848 21.67881019 185.99932091 25.248402 182.41894531 28.93530273 C169.36941203 42.34764666 158.15441783 50.61804062 138.98925781 51.27514648 C132.91858882 51.17805228 126.85851775 50.73619025 120.80175781 50.33764648 C102.65501649 49.17103039 84.88744338 49.1274047 66.73925781 50.27514648 C24.64817719 52.9124766 24.64817719 52.9124766 9.23144531 39.32958984 C5.44616481 35.84924793 1.88086323 32.25401925 -1.38574219 28.27514648 C-8.98011558 19.27303558 -19.46830638 12.30382369 -30.01074219 7.27514648 C-30.87183594 6.86393555 -31.73292969 6.45272461 -32.62011719 6.02905273 C-36.65793344 4.00465785 -36.65793344 4.00465785 -41.01074219 3.27514648 Z M-90.01074219 136.27514648 C-91.00074219 136.93514648 -91.99074219 137.59514648 -93.01074219 138.27514648 C-91.03074219 138.27514648 -89.05074219 138.27514648 -87.01074219 138.27514648 C-88.00074219 137.61514648 -88.99074219 136.95514648 -90.01074219 136.27514648 Z M48.98925781 189.27514648 C47.93851074 189.46850586 46.88776367 189.66186523 45.80517578 189.86108398 C20.83105678 194.57716416 -3.29204282 202.02997152 -27.42358398 209.88623047 C-35.68794343 212.56404469 -43.98187919 215.11858088 -52.31811523 217.56201172 C-54.24481829 218.12714354 -56.16981207 218.69809291 -58.09472656 219.26928711 C-78.90281364 225.30819212 -106.03448944 232.15806944 -126.37011719 221.51733398 C-128.50400693 220.28007866 -130.61963097 219.01043405 -132.70996094 217.70092773 C-134.70128853 216.18735448 -134.70128853 216.18735448 -136.01074219 216.27514648 C-136.77806719 234.15097719 -131.2067007 249.0987311 -119.46777344 262.67749023 C-94.02588444 289.57551278 -57.8277996 303.97164792 -24.19995117 317.7043457 C8.44887168 331.05253097 39.35911886 347.13124059 68.98925781 366.27514648 C69.97829102 366.89147949 69.97829102 366.89147949 70.98730469 367.52026367 C72.3556812 368.38647634 73.68008028 369.32181922 74.98925781 370.27514648 C74.98925781 370.93514648 74.98925781 371.59514648 74.98925781 372.27514648 C49.9594739 365.90392876 25.68923927 356.48102316 1.61816406 347.19726562 C-5.55119645 344.43357838 -12.74995079 341.75120712 -19.95944214 339.09432983 C-21.31291197 338.59506202 -22.66589027 338.09445942 -24.01834106 337.59243774 C-25.91027498 336.89053183 -27.80422534 336.19406852 -29.69824219 335.49780273 C-30.79523438 335.09311768 -31.89222656 334.68843262 -33.02246094 334.27148438 C-35.68688589 333.38312504 -38.24652048 332.74920538 -41.01074219 332.27514648 C-40.45386719 332.66702148 -39.89699219 333.05889648 -39.32324219 333.46264648 C-33.92881434 337.69071155 -30.39519473 342.46629294 -26.82324219 348.21264648 C-15.15769984 366.55321965 -1.83960362 382.43456698 13.11816406 398.18530273 C18.14715791 403.48310694 23.07471332 408.87122998 27.98925781 414.27514648 C32.59994198 410.4282629 36.95145505 406.43373092 41.14941406 402.14233398 C42.28404571 400.99506605 43.41881542 399.84793465 44.55371094 398.70092773 C46.3086931 396.92110976 48.06200479 395.13970488 49.81274414 393.35571289 C51.52466201 391.61344271 53.24287363 389.87757299 54.96191406 388.14233398 C55.47770523 387.61308319 55.9934964 387.0838324 56.5249176 386.5385437 C62.56567939 380.45675568 67.38064511 377.62850828 75.98925781 377.27514648 C76.69456635 377.24400757 77.39987488 377.21286865 78.1265564 377.18078613 C80.26258311 377.11267038 82.3951751 377.08459755 84.53222656 377.07202148 C85.30431961 377.06632141 86.07641266 377.06062134 86.87190247 377.05474854 C88.48774886 377.04538611 90.10361359 377.03879991 91.71948242 377.03491211 C94.18148614 377.02512769 96.64268068 376.99399154 99.10449219 376.96264648 C100.68456542 376.95612176 102.26464454 376.95086921 103.84472656 376.94702148 C104.57298141 376.93467468 105.30123627 376.92232788 106.05155945 376.90960693 C111.58654148 376.93363754 115.46266785 378.19419739 119.74023438 381.71728516 C120.19881836 382.20430908 120.65740234 382.69133301 121.12988281 383.19311523 C121.89945313 383.99072266 121.89945313 383.99072266 122.68457031 384.80444336 C123.45414063 385.62525391 123.45414063 385.62525391 124.23925781 386.46264648 C126.11977565 388.4509501 128.0187781 390.37251263 129.98925781 392.27514648 C130.64925781 392.27514648 131.30925781 392.27514648 131.98925781 392.27514648 C132.31925781 393.26514648 132.64925781 394.25514648 132.98925781 395.27514648 C134.61353878 396.92162249 134.61353878 396.92162249 136.61425781 398.52514648 C142.27478026 403.33354727 147.49323315 408.34039393 151.98925781 414.27514648 C155.00433578 412.94877099 156.78771912 411.63000331 158.86425781 409.08764648 C162.44090087 404.85296303 166.1939177 400.81250973 169.98925781 396.77514648 C177.1327152 389.15352713 177.1327152 389.15352713 183.98925781 381.27514648 C184.44623047 380.73341797 184.90320313 380.19168945 185.37402344 379.63354492 C192.80386371 370.79268268 199.60360144 361.76791221 205.83837891 352.04907227 C206.99724513 350.2628351 208.18432026 348.49917841 209.38378906 346.73999023 C210.11984375 345.6584668 210.85589844 344.57694336 211.61425781 343.46264648 C212.26652344 342.50745117 212.91878906 341.55225586 213.59082031 340.56811523 C215.16281948 338.43819101 215.16281948 338.43819101 214.98925781 336.27514648 C217.95925781 335.28514648 220.92925781 334.29514648 223.98925781 333.27514648 C220.45192346 332.09603503 220.06072186 332.44409975 216.86425781 334.02514648 C213.9107386 335.47485921 210.97554351 336.6391818 207.85205078 337.65551758 C203.34630286 339.14340507 198.89187303 340.74492827 194.44238281 342.39233398 C192.79366898 342.99948254 191.14490374 343.60649153 189.49609375 344.21337891 C188.63914917 344.52922943 187.78220459 344.84507996 186.89929199 345.17050171 C171.88116627 350.70141876 156.83618266 356.15047693 141.73925781 361.46264648 C140.98165161 361.73018738 140.22404541 361.99772827 139.44348145 362.27337646 C115.57422338 370.69509748 115.57422338 370.69509748 106.98925781 372.27514648 C106.65925781 371.61514648 106.32925781 370.95514648 105.98925781 370.27514648 C106.57070557 369.99461426 107.15215332 369.71408203 107.7512207 369.42504883 C109.85864061 368.34225754 111.81098713 367.16501374 113.79785156 365.87670898 C145.19833256 345.68478961 178.03475093 329.19742781 212.58642578 315.13208008 C272.66249944 291.2477818 272.66249944 291.2477818 313.92285156 243.81811523 C318.08008348 233.90471604 318.34740604 224.84715152 317.98925781 214.27514648 C317.43238281 214.66186523 316.87550781 215.04858398 316.30175781 215.44702148 C299.22387857 227.10152016 283.17274111 228.71326037 262.98925781 225.27514648 C240.74498008 220.86089864 219.10229513 213.3715619 197.55224609 206.44287109 C149.38425469 190.98536743 99.57927801 179.81682603 48.98925781 189.27514648 Z M-69.01074219 321.27514648 C-68.35074219 321.93514648 -67.69074219 322.59514648 -67.01074219 323.27514648 C-66.02074219 322.94514648 -65.03074219 322.61514648 -64.01074219 322.27514648 C-65.66074219 321.94514648 -67.31074219 321.61514648 -69.01074219 321.27514648 Z M243.98925781 324.27514648 C247.92001425 323.70061902 247.92001425 323.70061902 250.98925781 321.27514648 C247.47209478 321.27514648 246.61804033 322.09960233 243.98925781 324.27514648 Z M-64.01074219 323.27514648 C-63.35074219 323.93514648 -62.69074219 324.59514648 -62.01074219 325.27514648 C-61.02074219 324.94514648 -60.03074219 324.61514648 -59.01074219 324.27514648 C-60.66074219 323.94514648 -62.31074219 323.61514648 -64.01074219 323.27514648 Z M-59.01074219 325.27514648 C-56.74888764 327.53700103 -55.04090658 328.31436265 -52.01074219 329.27514648 C-51.02074219 328.94514648 -50.03074219 328.61514648 -49.01074219 328.27514648 C-53.8228412 325.98469634 -53.8228412 325.98469634 -59.01074219 325.27514648 Z M235.98925781 326.27514648 C235.32925781 326.93514648 234.66925781 327.59514648 233.98925781 328.27514648 C235.63925781 327.94514648 237.28925781 327.61514648 238.98925781 327.27514648 C237.99925781 326.94514648 237.00925781 326.61514648 235.98925781 326.27514648 Z M-49.01074219 329.27514648 C-48.35074219 329.93514648 -47.69074219 330.59514648 -47.01074219 331.27514648 C-46.02074219 330.94514648 -45.03074219 330.61514648 -44.01074219 330.27514648 C-45.66074219 329.94514648 -47.31074219 329.61514648 -49.01074219 329.27514648 Z M225.98925781 330.27514648 C225.32925781 330.93514648 224.66925781 331.59514648 223.98925781 332.27514648 C225.63925781 331.94514648 227.28925781 331.61514648 228.98925781 331.27514648 C227.99925781 330.94514648 227.00925781 330.61514648 225.98925781 330.27514648 Z M50.48901367 407.66186523 C49.39147457 408.75956362 48.29670565 409.86003588 47.20410156 410.96264648 C46.62841934 411.53974365 46.05273712 412.11684082 45.45960999 412.71142578 C43.61297747 414.56367678 41.76984328 416.4193666 39.92675781 418.27514648 C38.67893904 419.52797788 37.43089514 420.7805851 36.18261719 422.03295898 C33.11554125 425.11108843 30.05159944 428.19230726 26.98925781 431.27514648 C30.84112153 437.36175289 34.71323664 443.42722132 38.73925781 449.40014648 C42.95079964 455.67765026 47.07284251 462.00935841 51.14648438 468.37719727 C53.25217743 471.65438973 55.39786899 474.87378004 57.68847656 478.02514648 C59.41233586 480.4602075 60.72190418 482.61540233 61.98925781 485.27514648 C62.95111537 481.45270458 63.91132963 477.62985377 64.87011719 473.80664062 C65.35430336 471.87731182 65.83973629 469.94829603 66.32519531 468.01928711 C67.22233219 464.44008479 68.10949589 460.8586561 68.98925781 457.27514648 C69.21637451 456.35773682 69.44349121 455.44032715 69.67749023 454.49511719 C70.81664777 449.69413604 70.88165575 446.13375746 69.98925781 441.27514648 C70.48425781 440.28514648 70.48425781 440.28514648 70.98925781 439.27514648 C69.86014972 436.66259571 68.66729422 434.16945473 67.36816406 431.64233398 C66.98941635 430.89049835 66.61066864 430.13866272 66.22044373 429.36404419 C65.00498025 426.9555682 63.77852755 424.55288011 62.55175781 422.15014648 C61.72746208 420.52160852 60.9038848 418.8927067 60.08105469 417.26342773 C58.05877858 413.26305897 56.02662729 409.26784796 53.98925781 405.27514648 C52.53372465 405.16006411 52.53372465 405.16006411 50.48901367 407.66186523 Z M126.98925781 406.27514648 C125.09942518 410.00846707 123.22533421 413.74817082 121.37597656 417.50170898 C119.77466411 420.74186988 118.10376961 423.93248305 116.38378906 427.11108398 C115.54323644 428.72790315 114.70337792 430.34508339 113.86425781 431.96264648 C113.44990479 432.69652588 113.03555176 433.43040527 112.60864258 434.18652344 C109.06054666 441.19126554 110.31118554 446.82306752 111.98925781 454.27514648 C112.26921042 455.58911225 112.54798285 456.90332991 112.82568359 458.21777344 C113.7130981 462.35100666 114.66043009 466.46932667 115.61425781 470.58764648 C115.94280515 472.02179459 116.27093245 473.45603899 116.59863281 474.89038086 C117.39068821 478.35308849 118.18835108 481.81447396 118.98925781 485.27514648 C120.95792708 482.69523861 122.80848248 480.08260014 124.56347656 477.35327148 C125.0586377 476.58644043 125.55379883 475.81960938 126.06396484 475.02954102 C126.59618652 474.20309082 127.1284082 473.37664062 127.67675781 472.52514648 C133.57928153 463.38756934 139.6015058 454.33429249 145.69506836 445.32299805 C146.3412915 444.36103516 146.98751465 443.39907227 147.65332031 442.40795898 C148.22518066 441.56120605 148.79704102 440.71445312 149.38623047 439.84204102 C151.11893749 437.0674931 152.56951984 434.22036472 153.98925781 431.27514648 C150.47185303 427.70841456 146.9480132 424.14821697 143.41796875 420.59399414 C142.21726886 419.38321799 141.01836761 418.17065547 139.82128906 416.95629883 C138.10330034 415.21413311 136.37900906 413.47843104 134.65332031 411.74389648 C134.1167984 411.197052 133.58027649 410.65020752 133.02749634 410.08679199 C131.71883494 408.77773551 130.35829155 407.52092743 128.98925781 406.27514648 C128.32925781 406.27514648 127.66925781 406.27514648 126.98925781 406.27514648 Z M70.98925781 441.27514648 C71.98925781 443.27514648 71.98925781 443.27514648 71.98925781 443.27514648 Z " fill="#FDFEFD" transform="translate(421.0107421875,274.724853515625)"/>
<path d="M0 0 C1.01545898 0.26731934 2.03091797 0.53463867 3.07714844 0.81005859 C18.40279156 4.86157963 33.52415088 9.42471696 48.5625 14.4375 C48.5625 15.0975 48.5625 15.7575 48.5625 16.4375 C44.41359214 17.61682663 40.51798123 17.43499081 36.25 17.1875 C35.46125488 17.14375244 34.67250977 17.10000488 33.85986328 17.05493164 C26.25575013 16.55383813 18.97616081 15.17610187 11.5625 13.4375 C11.2325 14.0975 10.9025 14.7575 10.5625 15.4375 C9.9025 15.1075 9.2425 14.7775 8.5625 14.4375 C8.5625 13.7775 8.5625 13.1175 8.5625 12.4375 C6.69803223 12.4837854 6.69803223 12.4837854 4.79589844 12.53100586 C-0.94101287 12.52702209 -6.50154262 11.75367828 -12.171875 10.94140625 C-14.4622186 10.62680032 -16.75258391 10.31235246 -19.04296875 9.99804688 C-22.59697387 9.50309603 -26.15053424 9.00521812 -29.70361328 8.50366211 C-33.17113398 8.01651987 -36.64012255 7.54103707 -40.109375 7.06640625 C-41.13206482 6.91845108 -42.15475464 6.77049591 -43.20843506 6.61805725 C-62.50443582 3.99517628 -82.06842046 4.27536649 -101.5 4.26953125 C-104.06852231 4.26630537 -106.63704445 4.26294039 -109.20556641 4.25944519 C-114.56071477 4.25350083 -119.91584511 4.25155679 -125.27099609 4.25219727 C-131.37445447 4.25279565 -137.4778238 4.24227198 -143.58125973 4.2264536 C-149.55221839 4.21155618 -155.5231305 4.20821577 -161.49411011 4.20880699 C-163.98770511 4.20764735 -166.48130118 4.20334311 -168.97488403 4.19547462 C-192.33043332 4.12867073 -215.56783644 5.31994082 -238.75 8.25 C-240.13330692 8.41899266 -241.51669228 8.58734426 -242.90014648 8.75512695 C-246.60914846 9.20724909 -250.31681631 9.6694615 -254.02416992 10.1348877 C-256.58297828 10.45574181 -259.14204302 10.77448601 -261.70117188 11.09277344 C-268.85187271 11.98233872 -276.00254312 12.87205049 -283.15161133 13.7746582 C-283.97022644 13.87787384 -284.78884155 13.98108948 -285.63226318 14.08743286 C-287.15068828 14.27904821 -288.66904613 14.47119763 -290.18731689 14.66403198 C-293.86209847 15.12761965 -297.53861769 15.57370361 -301.21826172 15.99707031 C-302.28849075 16.12036713 -302.28849075 16.12036713 -303.38034058 16.24615479 C-306.59005544 16.54470412 -309.77884941 16.53127331 -313 16.5 C-314.82724609 16.48646484 -314.82724609 16.48646484 -316.69140625 16.47265625 C-317.59761719 16.46105469 -318.50382812 16.44945312 -319.4375 16.4375 C-319.4375 15.4475 -319.4375 14.4575 -319.4375 13.4375 C-302.25057401 8.54520601 -285.00878235 3.88320709 -267.71020508 -0.59692383 C-265.07769017 -1.27911536 -262.44659566 -1.96641661 -259.81665039 -2.65844727 C-170.29978653 -26.20275054 -88.85653141 -23.47102522 0 0 Z " fill="#FDFEFD" transform="translate(647.4375,501.5625)"/>
<path d="M0 0 C0.703125 1.7421875 0.703125 1.7421875 1.25 3.875 C2.48588371 7.44747635 2.89411987 7.92873453 6.25 10.1875 C10.93853537 11.20334933 12.86817863 10.30428499 17 8 C17.99 7.34 18.98 6.68 20 6 C22.6875 6.375 22.6875 6.375 25 7 C25.495 8.98 25.495 8.98 26 11 C26.99 10.67 27.98 10.34 29 10 C26.02639202 23.58672914 26.02639202 23.58672914 19.3203125 28.140625 C10.44351947 33.07626925 0.00663339 34.52420168 -10 35 C-10.77472656 35.04125 -11.54945313 35.0825 -12.34765625 35.125 C-27.46034621 35.52867786 -46.61445004 33.38711544 -58.6171875 23.4296875 C-60.8796812 21.0904991 -61.94692586 19.34877295 -62.4375 16.125 C-61.83640315 11.8314511 -60.37469897 10.67163668 -57 8 C-43.3653119 -0.63735897 -15.58315886 -5.19438629 0 0 Z " fill="#FDFEFD" transform="translate(705,331)"/>
<path d="M0 0 C4.74636872 3.49273743 4.74636872 3.49273743 6 6 C6.40428769 9.63858918 6.38663107 11.42095673 4.328125 14.50390625 C-6.77552753 26.40866122 -26.7900766 27.29160865 -42 28 C-54.17034023 28.2636369 -66.8716495 26.11139503 -77 19 C-81.29359377 14.25444899 -82.51869256 10.6984022 -83.14453125 4.421875 C-83 2 -83 2 -80.5625 -0.625 C-79.716875 -1.07875 -78.87125 -1.5325 -78 -2 C-77.45472656 -1.6390625 -76.90945313 -1.278125 -76.34765625 -0.90625 C-70.96431317 2.40657651 -66.37207316 4.41748821 -60 3 C-56.89777139 0.39813084 -56.12766888 -3.18327456 -55 -7 C-38.77728184 -10.701273 -14.60481431 -8.20939403 0 0 Z " fill="#FDFEFD" transform="translate(374,338)"/>
<path d="M0 0 C6.18274315 2.825227 9.53237961 7.82003034 12 14 C12.65140815 17.83607024 12.52580372 19.1797462 10.4375 22.4375 C8 24 8 24 4.75 24.1875 C-0.86050162 22.41084115 -4.92834283 19.10413356 -8.20703125 14.19140625 C-10.14497365 10.21818188 -10.32758561 7.17241191 -9 3 C-6.68189626 -0.6601638 -4.09795098 -0.630454 0 0 Z " fill="#FBFDFC" transform="translate(466,373)"/>
<path d="M0 0 C2.06276925 1.42259948 2.79589089 2.54467968 3.8125 4.8125 C4.30638193 10.57445587 0.96178674 14.96256171 -2.40625 19.3046875 C-4.37765106 21.40171706 -6.25304243 22.21515498 -9 23 C-9.33 23.66 -9.66 24.32 -10 25 C-16.875 22.25 -16.875 22.25 -18 20 C-18.4607163 13.19003721 -16.09310337 9.02123559 -11.88671875 3.84765625 C-8.2239036 0.26067578 -5.09676063 -0.54220858 0 0 Z " fill="#FAFDFB" transform="translate(564,373)"/>
<path d="M0 0 C8.41484714 -0.16681415 16.76162937 0.27344515 25.15625 0.78125 C27.43497783 0.9109337 29.71758496 1 32 1 C32 1.66 32 2.32 32 3 C27.75351938 4.21996049 23.74123368 3.95596376 19.375 3.6875 C18.57336426 3.64117432 17.77172852 3.59484863 16.94580078 3.54711914 C11.15404632 3.17173849 5.64996056 2.36692594 0 1 C0 0.67 0 0.34 0 0 Z " fill="#F0F8F4" transform="translate(664,515)"/>
<path d="M0 0 C1.98 0.66 3.96 1.32 6 2 C6 2.99 6 3.98 6 5 C4.68 5.33 3.36 5.66 2 6 C2 5.34 2 4.68 2 4 C0.97519531 4.01160156 -0.04960937 4.02320313 -1.10546875 4.03515625 C-2.466144 4.04454022 -3.82682124 4.05363977 -5.1875 4.0625 C-5.86103516 4.07087891 -6.53457031 4.07925781 -7.22851562 4.08789062 C-10.95434131 4.10606538 -14.3788042 3.89299392 -18 3 C-18 2.67 -18 2.34 -18 2 C-12.06 2.33 -6.12 2.66 0 3 C0 2.01 0 1.02 0 0 Z " fill="#F1F9F5" transform="translate(338,441)"/>
<path d="M0 0 C0.66 0.33 1.32 0.66 2 1 C0.5459375 2.3303125 0.5459375 2.3303125 -0.9375 3.6875 C-3.60122242 6.32615209 -4.7731363 8.14331715 -5 12 C-5.33 12 -5.66 12 -6 12 C-6.3125 9.3125 -6.3125 9.3125 -6 6 C-3.5625 3.1875 -3.5625 3.1875 -1 1 C-0.67 0.67 -0.34 0.34 0 0 Z " fill="#F6FAF7" transform="translate(649,338)"/>
<path d="M0 0 C0.82757813 0.23009766 0.82757813 0.23009766 1.671875 0.46484375 C4.20317383 1.04670271 6.66441972 1.32435445 9.25 1.5625 C10.14203125 1.64628906 11.0340625 1.73007812 11.953125 1.81640625 C12.62859375 1.87699219 13.3040625 1.93757812 14 2 C14 2.33 14 2.66 14 3 C9.38 3 4.76 3 0 3 C0 2.01 0 1.02 0 0 Z " fill="#EFF9F3" transform="translate(328,515)"/>
<path d="M0 0 C4.875 1.75 4.875 1.75 6 4 C4.02 3.34 2.04 2.68 0 2 C0 1.34 0 0.68 0 0 Z M-3 3 C-2.34 3 -1.68 3 -1 3 C-1.66 4.32 -2.32 5.64 -3 7 C-3.33 6.01 -3.66 5.02 -4 4 C-3.67 3.67 -3.34 3.34 -3 3 Z " fill="#F3FAF6" transform="translate(295,336)"/>
<path d="M0 0 C0.66 0 1.32 0 2 0 C2 1.65 2 3.3 2 5 C1.67 4.01 1.34 3.02 1 2 C0.34 1.67 -0.32 1.34 -1 1 C-0.67 0.67 -0.34 0.34 0 0 Z " fill="#F4FBF6" transform="translate(731,336)"/>
<path d="M0 0 C0.66 1.32 1.32 2.64 2 4 C1.01 3.67 0.02 3.34 -1 3 C-0.67 2.01 -0.34 1.02 0 0 Z " fill="#F6FDF9" transform="translate(292,475)"/>
<path d="M0 0 C1.98 0 3.96 0 6 0 C6 0.33 6 0.66 6 1 C4.02 1 2.04 1 0 1 C0 0.67 0 0.34 0 0 Z " fill="#EFF9F4" transform="translate(323,278)"/>
<path d="M0 0 C0.33 0 0.66 0 1 0 C1 1.65 1 3.3 1 5 C0.67 5 0.34 5 0 5 C0 3.35 0 1.7 0 0 Z " fill="#F4FBF8" transform="translate(733,344)"/>
<path d="M0 0 C4 1 4 1 4 1 Z " fill="#F2FBF6" transform="translate(675,518)"/>
<path d="M0 0 C4 1 4 1 4 1 Z " fill="#F7FDFA" transform="translate(699,366)"/>
<path d="M0 0 C1 4 1 4 1 4 Z " fill="#F7FCF9" transform="translate(290,353)"/>
<path d="M0 0 C4 1 4 1 4 1 Z " fill="#F5FBF6" transform="translate(547,327)"/>
<path d="M0 0 C4 1 4 1 4 1 Z " fill="#F5FCF9" transform="translate(346,292)"/>
<path d="M0 0 C3 1 3 1 3 1 Z " fill="#F3FCF8" transform="translate(692,513)"/>
<path d="M0 0 C3 1 3 1 3 1 Z " fill="#F7FDF9" transform="translate(582,507)"/>
<path d="M0 0 C3 1 3 1 3 1 Z " fill="#F8FCF7" transform="translate(364,495)"/>
<path d="" fill="#F6FAF8" transform="translate(0,0)"/>
<path d="" fill="#EBF5F0" transform="translate(0,0)"/>
<path d="M0 0 C3 1 3 1 3 1 Z " fill="#F6FCFA" transform="translate(297,480)"/>
<path d="M0 0 C3 1 3 1 3 1 Z " fill="#F5FAF8" transform="translate(336,293)"/>
<path d="M0 0 C3 1 3 1 3 1 Z " fill="#F3FDF7" transform="translate(330,278)"/>
<path d="" fill="#E2F1E8" transform="translate(0,0)"/>
<path d="" fill="#E7F2EB" transform="translate(0,0)"/>
<path d="M0 0 C2 1 2 1 2 1 Z " fill="#F9FEFC" transform="translate(395,614)"/>
<path d="M0 0 C2 1 2 1 2 1 Z " fill="#E6F3EC" transform="translate(276,542)"/>
<path d="M0 0 C2 1 2 1 2 1 Z " fill="#F6FCF7" transform="translate(364,516)"/>
<path d="M0 0 C2 1 2 1 2 1 Z " fill="#F8FDFA" transform="translate(340,501)"/>
<path d="" fill="#F7FEF9" transform="translate(0,0)"/>
<path d="" fill="#F5FBF8" transform="translate(0,0)"/>
<path d="M0 0 C2 1 2 1 2 1 Z " fill="#F8FCFB" transform="translate(417,490)"/>
<path d="M0 0 C2 1 2 1 2 1 Z " fill="#F9FDFA" transform="translate(618,483)"/>
<path d="M0 0 C2 1 2 1 2 1 Z " fill="#F6FBF8" transform="translate(313,480)"/>
<path d="M0 0 C2 1 2 1 2 1 Z " fill="#F6FDFB" transform="translate(600,477)"/>
<path d="M0 0 C2 1 2 1 2 1 Z " fill="#F8FCF9" transform="translate(444,471)"/>
<path d="M0 0 C2 1 2 1 2 1 Z " fill="#FAFCFB" transform="translate(568,469)"/>
<path d="M0 0 C2 1 2 1 2 1 Z " fill="#F9FDFB" transform="translate(500,462)"/>
<path d="M0 0 C2 1 2 1 2 1 Z " fill="#F6FBF9" transform="translate(324,454)"/>
<path d="M0 0 C2 1 2 1 2 1 Z " fill="#F5FCF8" transform="translate(332,452)"/>
<path d="M0 0 C2 1 2 1 2 1 Z " fill="#F8FDF9" transform="translate(339,409)"/>
<path d="" fill="#EBF7EF" transform="translate(0,0)"/>
<path d="" fill="#E7F4ED" transform="translate(0,0)"/>
<path d="" fill="#E7F4EC" transform="translate(0,0)"/>
<path d="" fill="#F5FDF8" transform="translate(0,0)"/>
<path d="" fill="#F4FCF7" transform="translate(0,0)"/>
<path d="" fill="#F8FCFA" transform="translate(0,0)"/>
<path d="" fill="#F5FCF9" transform="translate(0,0)"/>
<path d="" fill="#F8FEFA" transform="translate(0,0)"/>
<path d="" fill="#F9FDFB" transform="translate(0,0)"/>
<path d="M0 0 C2 1 2 1 2 1 Z " fill="#F5FDF7" transform="translate(672,283)"/>
<path d="M0 0 C2 1 2 1 2 1 Z " fill="#F2FAF5" transform="translate(674,282)"/>
<path d="M0 0 C2 1 2 1 2 1 Z " fill="#ECF8F1" transform="translate(320,278)"/>
<path d="M0 0 C2 1 2 1 2 1 Z " fill="#E4F1EA" transform="translate(700,268)"/>
<path d="M0 0 C2 1 2 1 2 1 Z " fill="#EBF5EF" transform="translate(616,264)"/>
<path d="" fill="#597F5E" transform="translate(0,0)"/>
<path d="" fill="#5A825F" transform="translate(0,0)"/>
<path d="" fill="#59805F" transform="translate(0,0)"/>
<path d="" fill="#557F5C" transform="translate(0,0)"/>
<path d="" fill="#57815E" transform="translate(0,0)"/>
<path d="" fill="#557F5C" transform="translate(0,0)"/>
<path d="" fill="#587F5F" transform="translate(0,0)"/>
<path d="" fill="#5C8360" transform="translate(0,0)"/>
<path d="" fill="#58815E" transform="translate(0,0)"/>
<path d="" fill="#56805D" transform="translate(0,0)"/>
<path d="" fill="#587F5D" transform="translate(0,0)"/>
<path d="" fill="#5A8161" transform="translate(0,0)"/>
<path d="" fill="#567F5D" transform="translate(0,0)"/>
<path d="" fill="#57805D" transform="translate(0,0)"/>
<path d="" fill="#57815F" transform="translate(0,0)"/>
<path d="" fill="#587E5E" transform="translate(0,0)"/>
<path d="" fill="#E1EFE7" transform="translate(0,0)"/>
<path d="" fill="#DFEEE5" transform="translate(0,0)"/>
<path d="" fill="#E2EFE7" transform="translate(0,0)"/>
<path d="" fill="#E2F1E8" transform="translate(0,0)"/>
<path d="" fill="#E5F1EA" transform="translate(0,0)"/>
<path d="" fill="#E4F2E8" transform="translate(0,0)"/>
<path d="" fill="#E9F4ED" transform="translate(0,0)"/>
<path d="" fill="#F7FCF7" transform="translate(0,0)"/>
<path d="" fill="#E8F2EB" transform="translate(0,0)"/>
<path d="" fill="#EAF2EB" transform="translate(0,0)"/>
<path d="" fill="#E8F4EE" transform="translate(0,0)"/>
<path d="" fill="#F6FCF9" transform="translate(0,0)"/>
<path d="" fill="#F8FCF8" transform="translate(0,0)"/>
<path d="" fill="#F6FBF8" transform="translate(0,0)"/>
<path d="" fill="#F7FDFA" transform="translate(0,0)"/>
<path d="" fill="#E9F5EE" transform="translate(0,0)"/>
<path d="" fill="#F4FCF9" transform="translate(0,0)"/>
<path d="" fill="#ECF4F1" transform="translate(0,0)"/>
<path d="" fill="#E8F5ED" transform="translate(0,0)"/>
<path d="" fill="#EDF8F0" transform="translate(0,0)"/>
<path d="" fill="#ECF3EE" transform="translate(0,0)"/>
<path d="" fill="#FAFEFC" transform="translate(0,0)"/>
<path d="" fill="#EBF6F1" transform="translate(0,0)"/>
<path d="" fill="#F9FDFB" transform="translate(0,0)"/>
<path d="" fill="#ECF3EF" transform="translate(0,0)"/>
<path d="" fill="#FAFDFB" transform="translate(0,0)"/>
<path d="" fill="#EAF4ED" transform="translate(0,0)"/>
<path d="" fill="#FAFDFC" transform="translate(0,0)"/>
<path d="" fill="#FAFEFD" transform="translate(0,0)"/>
<path d="" fill="#F9FFFB" transform="translate(0,0)"/>
<path d="" fill="#E7F3EA" transform="translate(0,0)"/>
<path d="" fill="#FAFFFE" transform="translate(0,0)"/>
<path d="" fill="#F8FDF9" transform="translate(0,0)"/>
<path d="" fill="#F8FCFA" transform="translate(0,0)"/>
<path d="" fill="#EBF6F3" transform="translate(0,0)"/>
<path d="" fill="#FBFDFB" transform="translate(0,0)"/>
<path d="" fill="#F9FCFB" transform="translate(0,0)"/>
<path d="" fill="#EBF5EE" transform="translate(0,0)"/>
<path d="" fill="#E9F5EE" transform="translate(0,0)"/>
<path d="" fill="#57815F" transform="translate(0,0)"/>
<path d="" fill="#F9FDFA" transform="translate(0,0)"/>
<path d="" fill="#F7FCFA" transform="translate(0,0)"/>
<path d="" fill="#F8FCFB" transform="translate(0,0)"/>
<path d="" fill="#FAFBFB" transform="translate(0,0)"/>
<path d="" fill="#E1EFE6" transform="translate(0,0)"/>
<path d="" fill="#F9FDFB" transform="translate(0,0)"/>
<path d="" fill="#FAFEFB" transform="translate(0,0)"/>
<path d="" fill="#FAFFFD" transform="translate(0,0)"/>
<path d="" fill="#EFF9F2" transform="translate(0,0)"/>
<path d="" fill="#F0FAF3" transform="translate(0,0)"/>
<path d="" fill="#F2FBF4" transform="translate(0,0)"/>
<path d="" fill="#F9FEFB" transform="translate(0,0)"/>
<path d="" fill="#F8FEFB" transform="translate(0,0)"/>
<path d="" fill="#F9FDFA" transform="translate(0,0)"/>
<path d="" fill="#F7FEFA" transform="translate(0,0)"/>
<path d="" fill="#F4FAF7" transform="translate(0,0)"/>
<path d="" fill="#F7FBF6" transform="translate(0,0)"/>
<path d="" fill="#F9FEFB" transform="translate(0,0)"/>
<path d="" fill="#EEF8F3" transform="translate(0,0)"/>
<path d="" fill="#F8FFFB" transform="translate(0,0)"/>
<path d="" fill="#F6FCF9" transform="translate(0,0)"/>
<path d="" fill="#E9F5ED" transform="translate(0,0)"/>
<path d="" fill="#F2FBF5" transform="translate(0,0)"/>
<path d="" fill="#F6FBF7" transform="translate(0,0)"/>
<path d="" fill="#F5FCF8" transform="translate(0,0)"/>
<path d="" fill="#E2F1EA" transform="translate(0,0)"/>
<path d="" fill="#FBFFFC" transform="translate(0,0)"/>
<path d="" fill="#FCFEFA" transform="translate(0,0)"/>
<path d="" fill="#E4F2EC" transform="translate(0,0)"/>
<path d="" fill="#F3FDF7" transform="translate(0,0)"/>
<path d="" fill="#FDFAFC" transform="translate(0,0)"/>
<path d="" fill="#F8FEF9" transform="translate(0,0)"/>
<path d="" fill="#5C8563" transform="translate(0,0)"/>
<path d="" fill="#F9FDFB" transform="translate(0,0)"/>
<path d="" fill="#F8FCF9" transform="translate(0,0)"/>
<path d="" fill="#FBFFFC" transform="translate(0,0)"/>
<path d="" fill="#F5FBF8" transform="translate(0,0)"/>
<path d="" fill="#F8FDFA" transform="translate(0,0)"/>
<path d="" fill="#FCFDFB" transform="translate(0,0)"/>
<path d="" fill="#FAFEFB" transform="translate(0,0)"/>
<path d="" fill="#F9FDF9" transform="translate(0,0)"/>
<path d="" fill="#F9FCFB" transform="translate(0,0)"/>
<path d="" fill="#FBFEFC" transform="translate(0,0)"/>
<path d="" fill="#F7FDF9" transform="translate(0,0)"/>
<path d="" fill="#F3F9F6" transform="translate(0,0)"/>
<path d="" fill="#F3FBF9" transform="translate(0,0)"/>
<path d="" fill="#F6FEF7" transform="translate(0,0)"/>
<path d="" fill="#F7FDFA" transform="translate(0,0)"/>
<path d="" fill="#F6FEF7" transform="translate(0,0)"/>
<path d="" fill="#F6FEF8" transform="translate(0,0)"/>
<path d="" fill="#F5FCF5" transform="translate(0,0)"/>
<path d="" fill="#F4FBF7" transform="translate(0,0)"/>
<path d="" fill="#F3F9F6" transform="translate(0,0)"/>
<path d="" fill="#F5FCF8" transform="translate(0,0)"/>
<path d="" fill="#F8FDFB" transform="translate(0,0)"/>
<path d="" fill="#F7FCF7" transform="translate(0,0)"/>
<path d="" fill="#F7FDF9" transform="translate(0,0)"/>
<path d="" fill="#F7FDFA" transform="translate(0,0)"/>
<path d="" fill="#EEF6F2" transform="translate(0,0)"/>
<path d="" fill="#EEF7F2" transform="translate(0,0)"/>
<path d="" fill="#F6FEF9" transform="translate(0,0)"/>
<path d="" fill="#F6FCF9" transform="translate(0,0)"/>
<path d="" fill="#F7FCFA" transform="translate(0,0)"/>
<path d="" fill="#E9F5EF" transform="translate(0,0)"/>
<path d="" fill="#EAF5EE" transform="translate(0,0)"/>
<path d="" fill="#F6FEF9" transform="translate(0,0)"/>
<path d="" fill="#E6F4EE" transform="translate(0,0)"/>
<path d="" fill="#F5FCF7" transform="translate(0,0)"/>
<path d="" fill="#E7F2EE" transform="translate(0,0)"/>
<path d="" fill="#F7FDF9" transform="translate(0,0)"/>
<path d="" fill="#F5FDF8" transform="translate(0,0)"/>
<path d="" fill="#E6F4EE" transform="translate(0,0)"/>
<path d="" fill="#EDFAF3" transform="translate(0,0)"/>
<path d="" fill="#F1FAF5" transform="translate(0,0)"/>
<path d="" fill="#F5FBF7" transform="translate(0,0)"/>
<path d="" fill="#F2F9F3" transform="translate(0,0)"/>
<path d="" fill="#F3FAF6" transform="translate(0,0)"/>
<path d="" fill="#F5FDF7" transform="translate(0,0)"/>
<path d="" fill="#F2FCF8" transform="translate(0,0)"/>
<path d="" fill="#F5FBF7" transform="translate(0,0)"/>
<path d="" fill="#F4FBFA" transform="translate(0,0)"/>
<path d="" fill="#F4FBF7" transform="translate(0,0)"/>
<path d="" fill="#E7F2EE" transform="translate(0,0)"/>
<path d="" fill="#F6FCF9" transform="translate(0,0)"/>
<path d="" fill="#F7FDF8" transform="translate(0,0)"/>
<path d="" fill="#F4FCF6" transform="translate(0,0)"/>
<path d="" fill="#E9F5EE" transform="translate(0,0)"/>
<path d="" fill="#F6FBF7" transform="translate(0,0)"/>
<path d="" fill="#F5FCF9" transform="translate(0,0)"/>
<path d="" fill="#E9F6F0" transform="translate(0,0)"/>
<path d="" fill="#F2FDF6" transform="translate(0,0)"/>
<path d="" fill="#F3FAF6" transform="translate(0,0)"/>
<path d="" fill="#F7FEFA" transform="translate(0,0)"/>
<path d="" fill="#F6FDFA" transform="translate(0,0)"/>
<path d="" fill="#F5FDF8" transform="translate(0,0)"/>
<path d="" fill="#F7FDF9" transform="translate(0,0)"/>
<path d="" fill="#E7F6ED" transform="translate(0,0)"/>
<path d="" fill="#F7FCFB" transform="translate(0,0)"/>
<path d="" fill="#F6FDF7" transform="translate(0,0)"/>
<path d="" fill="#F7FDF7" transform="translate(0,0)"/>
<path d="" fill="#F8FFF9" transform="translate(0,0)"/>
<path d="" fill="#F5FDFA" transform="translate(0,0)"/>
<path d="" fill="#F7FBF8" transform="translate(0,0)"/>
<path d="" fill="#F8FCF9" transform="translate(0,0)"/>
<path d="" fill="#F8FFFC" transform="translate(0,0)"/>
<path d="" fill="#F9FEFB" transform="translate(0,0)"/>
<path d="" fill="#F7FCF8" transform="translate(0,0)"/>
<path d="" fill="#F9FDFB" transform="translate(0,0)"/>
<path d="" fill="#F9FDFB" transform="translate(0,0)"/>
<path d="" fill="#F8FDFB" transform="translate(0,0)"/>
<path d="" fill="#F8FCFB" transform="translate(0,0)"/>
<path d="" fill="#F8FEFA" transform="translate(0,0)"/>
<path d="" fill="#F4FBF9" transform="translate(0,0)"/>
<path d="" fill="#F8FEFA" transform="translate(0,0)"/>
<path d="" fill="#E7F3EC" transform="translate(0,0)"/>
<path d="" fill="#F9FEFC" transform="translate(0,0)"/>
<path d="" fill="#F7FCFB" transform="translate(0,0)"/>
<path d="" fill="#F6FCFA" transform="translate(0,0)"/>
<path d="" fill="#F8FEFC" transform="translate(0,0)"/>
<path d="" fill="#F8FDF9" transform="translate(0,0)"/>
<path d="" fill="#F8FEFA" transform="translate(0,0)"/>
<path d="" fill="#F7FEFB" transform="translate(0,0)"/>
<path d="" fill="#F6FDF7" transform="translate(0,0)"/>
<path d="" fill="#F7FBF8" transform="translate(0,0)"/>
<path d="" fill="#F8FCFA" transform="translate(0,0)"/>
<path d="" fill="#FAFEFC" transform="translate(0,0)"/>
<path d="" fill="#FAFFFD" transform="translate(0,0)"/>
<path d="" fill="#F9FDFA" transform="translate(0,0)"/>
<path d="" fill="#E7F6EC" transform="translate(0,0)"/>
<path d="" fill="#F7FCF8" transform="translate(0,0)"/>
<path d="" fill="#FAFFFB" transform="translate(0,0)"/>
<path d="" fill="#F8FDF9" transform="translate(0,0)"/>
<path d="" fill="#F5FAF8" transform="translate(0,0)"/>
<path d="" fill="#F7FCF9" transform="translate(0,0)"/>
<path d="" fill="#E8F5EC" transform="translate(0,0)"/>
<path d="" fill="#F8FBFC" transform="translate(0,0)"/>
<path d="" fill="#F5FCF8" transform="translate(0,0)"/>
<path d="" fill="#F4FEF9" transform="translate(0,0)"/>
<path d="" fill="#FAFEF9" transform="translate(0,0)"/>
<path d="" fill="#F8FDFB" transform="translate(0,0)"/>
<path d="" fill="#F9FFFB" transform="translate(0,0)"/>
<path d="" fill="#FAFEFC" transform="translate(0,0)"/>
<path d="" fill="#F9FFFD" transform="translate(0,0)"/>
<path d="" fill="#F6FDFA" transform="translate(0,0)"/>
<path d="" fill="#FAFCFC" transform="translate(0,0)"/>
<path d="" fill="#F6FBF8" transform="translate(0,0)"/>
<path d="" fill="#F8FFFE" transform="translate(0,0)"/>
<path d="" fill="#EAF7EF" transform="translate(0,0)"/>
<path d="" fill="#FBFDFD" transform="translate(0,0)"/>
<path d="" fill="#F6FEF9" transform="translate(0,0)"/>
<path d="" fill="#F9FEFC" transform="translate(0,0)"/>
<path d="" fill="#F8FFFA" transform="translate(0,0)"/>
<path d="" fill="#F6FCFA" transform="translate(0,0)"/>
<path d="" fill="#FAFFFB" transform="translate(0,0)"/>
<path d="" fill="#FAFFFB" transform="translate(0,0)"/>
<path d="" fill="#FAFDFC" transform="translate(0,0)"/>
<path d="" fill="#F9FEFA" transform="translate(0,0)"/>
<path d="" fill="#F7FDFA" transform="translate(0,0)"/>
<path d="" fill="#F9FDFA" transform="translate(0,0)"/>
<path d="" fill="#F8FEFC" transform="translate(0,0)"/>
<path d="" fill="#F7FEFB" transform="translate(0,0)"/>
<path d="" fill="#F7FCFA" transform="translate(0,0)"/>
<path d="" fill="#ECF9F1" transform="translate(0,0)"/>
<path d="" fill="#F9FFFC" transform="translate(0,0)"/>
<path d="" fill="#F7FDFC" transform="translate(0,0)"/>
<path d="" fill="#F7FDFB" transform="translate(0,0)"/>
<path d="" fill="#FAFEFC" transform="translate(0,0)"/>
<path d="" fill="#FAFFFB" transform="translate(0,0)"/>
<path d="" fill="#F8FEFB" transform="translate(0,0)"/>
<path d="" fill="#F6FBF8" transform="translate(0,0)"/>
<path d="" fill="#F6FBF9" transform="translate(0,0)"/>
<path d="" fill="#F6FAFA" transform="translate(0,0)"/>
<path d="" fill="#F7FCF9" transform="translate(0,0)"/>
<path d="" fill="#F0FBF2" transform="translate(0,0)"/>
<path d="" fill="#F8FCFB" transform="translate(0,0)"/>
<path d="" fill="#F8FCFB" transform="translate(0,0)"/>
<path d="" fill="#EEF8F0" transform="translate(0,0)"/>
<path d="" fill="#E6F3EB" transform="translate(0,0)"/>
<path d="" fill="#EFF9F2" transform="translate(0,0)"/>
<path d="" fill="#F7FAFB" transform="translate(0,0)"/>
<path d="" fill="#F4FDF7" transform="translate(0,0)"/>
<path d="" fill="#F5FDFA" transform="translate(0,0)"/>
<path d="" fill="#F7FEF8" transform="translate(0,0)"/>
<path d="" fill="#F6FDF8" transform="translate(0,0)"/>
<path d="" fill="#F4FEFA" transform="translate(0,0)"/>
<path d="" fill="#F5FDF7" transform="translate(0,0)"/>
<path d="" fill="#E9F8F0" transform="translate(0,0)"/>
<path d="" fill="#F4FEF6" transform="translate(0,0)"/>
<path d="" fill="#EDF9F3" transform="translate(0,0)"/>
<path d="" fill="#F1F9F4" transform="translate(0,0)"/>
<path d="" fill="#EFF8F2" transform="translate(0,0)"/>
<path d="" fill="#F8FDFB" transform="translate(0,0)"/>
<path d="" fill="#ECF9F3" transform="translate(0,0)"/>
<path d="" fill="#F7FBF9" transform="translate(0,0)"/>
<path d="" fill="#F6FCFA" transform="translate(0,0)"/>
<path d="" fill="#F7FDF9" transform="translate(0,0)"/>
<path d="" fill="#F2FBF6" transform="translate(0,0)"/>
<path d="" fill="#EEF8F1" transform="translate(0,0)"/>
<path d="" fill="#F2FBF5" transform="translate(0,0)"/>
<path d="" fill="#F3FCF7" transform="translate(0,0)"/>
<path d="" fill="#F9FFFC" transform="translate(0,0)"/>
<path d="" fill="#F7FCFA" transform="translate(0,0)"/>
<path d="" fill="#F4FBF8" transform="translate(0,0)"/>
<path d="" fill="#E9F5ED" transform="translate(0,0)"/>
<path d="" fill="#F2FAF7" transform="translate(0,0)"/>
<path d="" fill="#F7FEFC" transform="translate(0,0)"/>
<path d="" fill="#E8F6F0" transform="translate(0,0)"/>
<path d="" fill="#F9FCFB" transform="translate(0,0)"/>
<path d="" fill="#F2FDF6" transform="translate(0,0)"/>
<path d="" fill="#F0FAF6" transform="translate(0,0)"/>
<path d="" fill="#FBFEFC" transform="translate(0,0)"/>
<path d="" fill="#F1FBF5" transform="translate(0,0)"/>
<path d="" fill="#E7F4ED" transform="translate(0,0)"/>
<path d="" fill="#F2FAF5" transform="translate(0,0)"/>
<path d="" fill="#F1F9F4" transform="translate(0,0)"/>
<path d="" fill="#F7FCF8" transform="translate(0,0)"/>
<path d="" fill="#E8F5EE" transform="translate(0,0)"/>
<path d="" fill="#FAFFFC" transform="translate(0,0)"/>
<path d="" fill="#F9FDFB" transform="translate(0,0)"/>
<path d="" fill="#F6FDF7" transform="translate(0,0)"/>
<path d="" fill="#F9FAF8" transform="translate(0,0)"/>
<path d="" fill="#F7FCF8" transform="translate(0,0)"/>
<path d="" fill="#F7FEFA" transform="translate(0,0)"/>
<path d="" fill="#F8FCFA" transform="translate(0,0)"/>
<path d="" fill="#F7FCFA" transform="translate(0,0)"/>
<path d="" fill="#F7FBF9" transform="translate(0,0)"/>
<path d="" fill="#F8FDF9" transform="translate(0,0)"/>
<path d="" fill="#F7FDF8" transform="translate(0,0)"/>
<path d="" fill="#F7FEFA" transform="translate(0,0)"/>
<path d="" fill="#F9FEFB" transform="translate(0,0)"/>
<path d="" fill="#E7F4ED" transform="translate(0,0)"/>
<path d="" fill="#E9F4ED" transform="translate(0,0)"/>
<path d="" fill="#F9FDFD" transform="translate(0,0)"/>
<path d="" fill="#FAFFFD" transform="translate(0,0)"/>
<path d="" fill="#F7FBF7" transform="translate(0,0)"/>
<path d="" fill="#F9FCFB" transform="translate(0,0)"/>
<path d="" fill="#F6F9F6" transform="translate(0,0)"/>
<path d="" fill="#F8FEFD" transform="translate(0,0)"/>
<path d="" fill="#F8FEFD" transform="translate(0,0)"/>
<path d="" fill="#E6F5F1" transform="translate(0,0)"/>
<path d="" fill="#FAFFFC" transform="translate(0,0)"/>
<path d="" fill="#F9FEFA" transform="translate(0,0)"/>
<path d="" fill="#F7FBF9" transform="translate(0,0)"/>
<path d="" fill="#F8FBFB" transform="translate(0,0)"/>
<path d="" fill="#F2FCF8" transform="translate(0,0)"/>
<path d="" fill="#F5FBF7" transform="translate(0,0)"/>
<path d="" fill="#F2FCF7" transform="translate(0,0)"/>
<path d="" fill="#F9FDFB" transform="translate(0,0)"/>
<path d="" fill="#F6FCF8" transform="translate(0,0)"/>
<path d="" fill="#F9FFFA" transform="translate(0,0)"/>
<path d="" fill="#FAFDFA" transform="translate(0,0)"/>
<path d="" fill="#F9FEF9" transform="translate(0,0)"/>
<path d="" fill="#F4FAF7" transform="translate(0,0)"/>
<path d="" fill="#F6FDF7" transform="translate(0,0)"/>
<path d="" fill="#F5FCF8" transform="translate(0,0)"/>
<path d="" fill="#F4FBF7" transform="translate(0,0)"/>
<path d="" fill="#F3FAF9" transform="translate(0,0)"/>
<path d="" fill="#F8FCF8" transform="translate(0,0)"/>
<path d="" fill="#F5FCF5" transform="translate(0,0)"/>
<path d="" fill="#F6FBF8" transform="translate(0,0)"/>
<path d="" fill="#F6FAF9" transform="translate(0,0)"/>
<path d="" fill="#F7FBF9" transform="translate(0,0)"/>
<path d="" fill="#FBFDFB" transform="translate(0,0)"/>
<path d="" fill="#F6FBF9" transform="translate(0,0)"/>
<path d="" fill="#F4FCF7" transform="translate(0,0)"/>
<path d="" fill="#F8FDFA" transform="translate(0,0)"/>
<path d="" fill="#F9FEFB" transform="translate(0,0)"/>
<path d="" fill="#F4FBF8" transform="translate(0,0)"/>
<path d="" fill="#F5FCF9" transform="translate(0,0)"/>
<path d="" fill="#F5F9F8" transform="translate(0,0)"/>
<path d="" fill="#F4FAF6" transform="translate(0,0)"/>
<path d="" fill="#F7FCFA" transform="translate(0,0)"/>
<path d="" fill="#F9FDF9" transform="translate(0,0)"/>
<path d="" fill="#F4FCF6" transform="translate(0,0)"/>
<path d="" fill="#F5FAF7" transform="translate(0,0)"/>
<path d="" fill="#F3FDF6" transform="translate(0,0)"/>
<path d="" fill="#F3FDF9" transform="translate(0,0)"/>
<path d="" fill="#F5FCF8" transform="translate(0,0)"/>
<path d="" fill="#F2F9F6" transform="translate(0,0)"/>
<path d="" fill="#F8FDFC" transform="translate(0,0)"/>
<path d="" fill="#F8FFFA" transform="translate(0,0)"/>
<path d="" fill="#F9FDF9" transform="translate(0,0)"/>
<path d="" fill="#E9F7EE" transform="translate(0,0)"/>
<path d="" fill="#F3FCF5" transform="translate(0,0)"/>
<path d="" fill="#F1F6F4" transform="translate(0,0)"/>
<path d="" fill="#F3FBF7" transform="translate(0,0)"/>
<path d="" fill="#F5FAF7" transform="translate(0,0)"/>
<path d="" fill="#EBF6EF" transform="translate(0,0)"/>
<path d="" fill="#F9FDF9" transform="translate(0,0)"/>
<path d="" fill="#F0F7F3" transform="translate(0,0)"/>
<path d="" fill="#F5FCF7" transform="translate(0,0)"/>
<path d="" fill="#EDF8F0" transform="translate(0,0)"/>
<path d="" fill="#F0F9F3" transform="translate(0,0)"/>
<path d="" fill="#F1FBF3" transform="translate(0,0)"/>
<path d="" fill="#EBF6EE" transform="translate(0,0)"/>
<path d="" fill="#F1FAF3" transform="translate(0,0)"/>
<path d="" fill="#F4FBF7" transform="translate(0,0)"/>
<path d="" fill="#E5F4EC" transform="translate(0,0)"/>
<path d="" fill="#E5F2EC" transform="translate(0,0)"/>
<path d="" fill="#EBF6F0" transform="translate(0,0)"/>
<path d="" fill="#E5F1EB" transform="translate(0,0)"/>
<path d="" fill="#EBF5EF" transform="translate(0,0)"/>
<path d="" fill="#618766" transform="translate(0,0)"/>
<path d="" fill="#6F9275" transform="translate(0,0)"/>
<path d="" fill="#5A8360" transform="translate(0,0)"/>
<path d="" fill="#5F8865" transform="translate(0,0)"/>
<path d="" fill="#668C6C" transform="translate(0,0)"/>
<path d="" fill="#5C8262" transform="translate(0,0)"/>
<path d="" fill="#648A6A" transform="translate(0,0)"/>
<path d="" fill="#608766" transform="translate(0,0)"/>
<path d="" fill="#638968" transform="translate(0,0)"/>
<path d="" fill="#648969" transform="translate(0,0)"/>
</svg>
